<mxfile host="app.diagrams.net" agent="Mozilla/5.0 (X11; Ubuntu; Linux x86_64; rv:136.0) Gecko/20100101 Firefox/136.0" version="26.2.2">
  <diagram name="Page-1" id="_AxyACwRZ8hQc0Eg2rqU">
    <mxGraphModel dx="1918" dy="1225" grid="1" gridSize="10" guides="1" tooltips="1" connect="1" arrows="1" fold="1" page="1" pageScale="1" pageWidth="595" pageHeight="842" math="1" shadow="0">
      <root>
        <mxCell id="0" />
        <mxCell id="1" parent="0" />
        <mxCell id="VTfBhNd8e0zDPnXYmzr_-2" value="" style="ellipse;whiteSpace=wrap;html=1;aspect=fixed;fillColor=#616161;strokeColor=none;" vertex="1" parent="1">
          <mxGeometry x="-860" y="-144" width="78" height="78" as="geometry" />
        </mxCell>
        <mxCell id="VTfBhNd8e0zDPnXYmzr_-3" value="" style="sketch=0;outlineConnect=0;fontColor=#232F3E;gradientColor=none;fillColor=#000000;strokeColor=none;dashed=0;verticalLabelPosition=bottom;verticalAlign=top;align=center;html=1;fontSize=12;fontStyle=0;aspect=fixed;pointerEvents=1;shape=mxgraph.aws4.gear;" vertex="1" parent="1">
          <mxGeometry x="-851" y="-135" width="60" height="60" as="geometry" />
        </mxCell>
        <mxCell id="VTfBhNd8e0zDPnXYmzr_-4" value="" style="shape=image;html=1;verticalAlign=top;verticalLabelPosition=bottom;labelBackgroundColor=#ffffff;imageAspect=0;aspect=fixed;image=https://cdn0.iconfinder.com/data/icons/phosphor-light-vol-1/256/brain-light-128.png;imageBackground=#616161;" vertex="1" parent="1">
          <mxGeometry x="-837" y="-121" width="32" height="32" as="geometry" />
        </mxCell>
        <mxCell id="VTfBhNd8e0zDPnXYmzr_-5" value="" style="html=1;verticalLabelPosition=bottom;labelBackgroundColor=#ffffff;verticalAlign=top;shadow=0;dashed=0;strokeWidth=2;shape=mxgraph.ios7.misc.loading_circle;" vertex="1" parent="1">
          <mxGeometry x="-750" y="-140" width="70" height="70" as="geometry" />
        </mxCell>
        <mxCell id="VTfBhNd8e0zDPnXYmzr_-6" value="" style="rounded=0;whiteSpace=wrap;html=1;fillColor=#E6E6E6;strokeColor=default;" vertex="1" parent="1">
          <mxGeometry x="-932" y="-125" width="40" height="40" as="geometry" />
        </mxCell>
        <mxCell id="VTfBhNd8e0zDPnXYmzr_-20" value="" style="shape=image;html=1;verticalAlign=top;verticalLabelPosition=bottom;labelBackgroundColor=#ffffff;imageAspect=0;aspect=fixed;image=https://cdn3.iconfinder.com/data/icons/animals-105/150/icon_animal_girafa-128.png" vertex="1" parent="1">
          <mxGeometry x="-924" y="-117" width="24" height="24" as="geometry" />
        </mxCell>
        <mxCell id="VTfBhNd8e0zDPnXYmzr_-28" value="" style="endArrow=open;html=1;rounded=0;endFill=0;exitX=1;exitY=0.5;exitDx=0;exitDy=0;" edge="1" parent="1" source="VTfBhNd8e0zDPnXYmzr_-6">
          <mxGeometry width="50" height="50" relative="1" as="geometry">
            <mxPoint x="-910" y="-105.17" as="sourcePoint" />
            <mxPoint x="-860" y="-105.17" as="targetPoint" />
          </mxGeometry>
        </mxCell>
        <mxCell id="VTfBhNd8e0zDPnXYmzr_-30" value="" style="endArrow=open;html=1;rounded=0;exitX=1;exitY=0.5;exitDx=0;exitDy=0;entryX=0;entryY=0.5;entryDx=0;entryDy=0;entryPerimeter=0;endFill=0;" edge="1" parent="1" source="VTfBhNd8e0zDPnXYmzr_-2" target="VTfBhNd8e0zDPnXYmzr_-5">
          <mxGeometry width="50" height="50" relative="1" as="geometry">
            <mxPoint x="-750" as="sourcePoint" />
            <mxPoint x="-700" y="-50" as="targetPoint" />
          </mxGeometry>
        </mxCell>
        <mxCell id="VTfBhNd8e0zDPnXYmzr_-38" value="" style="endArrow=open;html=1;rounded=0;exitX=1;exitY=0.5;exitDx=0;exitDy=0;exitPerimeter=0;endFill=0;entryX=0.5;entryY=1;entryDx=0;entryDy=0;" edge="1" parent="1" source="VTfBhNd8e0zDPnXYmzr_-5" target="VTfBhNd8e0zDPnXYmzr_-39">
          <mxGeometry width="50" height="50" relative="1" as="geometry">
            <mxPoint x="-630" y="-80" as="sourcePoint" />
            <mxPoint x="-610" y="-105" as="targetPoint" />
          </mxGeometry>
        </mxCell>
        <mxCell id="VTfBhNd8e0zDPnXYmzr_-39" value="" style="rounded=0;whiteSpace=wrap;html=1;fillColor=#D5E8D4;strokeColor=none;rotation=90;" vertex="1" parent="1">
          <mxGeometry x="-675" y="-120" width="80" height="30" as="geometry" />
        </mxCell>
        <mxCell id="VTfBhNd8e0zDPnXYmzr_-40" value="" style="shape=image;html=1;verticalAlign=top;verticalLabelPosition=bottom;labelBackgroundColor=#ffffff;imageAspect=0;aspect=fixed;image=https://cdn3.iconfinder.com/data/icons/animals-105/150/icon_animal_elefante-128.png" vertex="1" parent="1">
          <mxGeometry x="-645" y="-138.5" width="20" height="20" as="geometry" />
        </mxCell>
        <mxCell id="VTfBhNd8e0zDPnXYmzr_-41" value="" style="shape=image;html=1;verticalAlign=top;verticalLabelPosition=bottom;labelBackgroundColor=#ffffff;imageAspect=0;aspect=fixed;image=https://cdn3.iconfinder.com/data/icons/animals-105/150/icon_animal_girafa-128.png" vertex="1" parent="1">
          <mxGeometry x="-647" y="-116.5" width="24" height="24" as="geometry" />
        </mxCell>
        <mxCell id="VTfBhNd8e0zDPnXYmzr_-42" value="&lt;font style=&quot;font-size: 12px;&quot;&gt;$$0.1$$&lt;/font&gt;" style="text;html=1;align=center;verticalAlign=middle;whiteSpace=wrap;rounded=0;" vertex="1" parent="1">
          <mxGeometry x="-621.5" y="-136.5" width="27" height="16" as="geometry" />
        </mxCell>
        <mxCell id="VTfBhNd8e0zDPnXYmzr_-47" value="$$\text{Predicción}$$" style="text;html=1;align=center;verticalAlign=middle;whiteSpace=wrap;rounded=0;" vertex="1" parent="1">
          <mxGeometry x="-745" y="-162.5" width="60" height="30" as="geometry" />
        </mxCell>
        <mxCell id="VTfBhNd8e0zDPnXYmzr_-48" value="" style="shape=image;html=1;verticalAlign=top;verticalLabelPosition=bottom;labelBackgroundColor=#ffffff;imageAspect=0;aspect=fixed;image=https://cdn3.iconfinder.com/data/icons/animals-105/150/icon_animal_leao-128.png" vertex="1" parent="1">
          <mxGeometry x="-645" y="-90" width="20" height="20" as="geometry" />
        </mxCell>
        <mxCell id="VTfBhNd8e0zDPnXYmzr_-49" value="&lt;font style=&quot;font-size: 12px;&quot;&gt;$$0.7$$&lt;/font&gt;" style="text;html=1;align=center;verticalAlign=middle;whiteSpace=wrap;rounded=0;" vertex="1" parent="1">
          <mxGeometry x="-621.5" y="-112.5" width="27" height="16" as="geometry" />
        </mxCell>
        <mxCell id="VTfBhNd8e0zDPnXYmzr_-50" value="&lt;font style=&quot;font-size: 12px;&quot;&gt;$$0.2$$&lt;/font&gt;" style="text;html=1;align=center;verticalAlign=middle;whiteSpace=wrap;rounded=0;" vertex="1" parent="1">
          <mxGeometry x="-621.5" y="-88.5" width="27" height="16" as="geometry" />
        </mxCell>
        <mxCell id="VTfBhNd8e0zDPnXYmzr_-51" value="$$\text{Modelo de}$$" style="text;html=1;align=center;verticalAlign=middle;whiteSpace=wrap;rounded=0;" vertex="1" parent="1">
          <mxGeometry x="-851" y="-70" width="60" height="30" as="geometry" />
        </mxCell>
        <mxCell id="VTfBhNd8e0zDPnXYmzr_-52" value="$$\text{Clasificación}$$" style="text;html=1;align=center;verticalAlign=middle;whiteSpace=wrap;rounded=0;" vertex="1" parent="1">
          <mxGeometry x="-851" y="-57" width="60" height="30" as="geometry" />
        </mxCell>
        <mxCell id="VTfBhNd8e0zDPnXYmzr_-53" value="$$\text{Entrada}$$" style="text;html=1;align=center;verticalAlign=middle;whiteSpace=wrap;rounded=0;" vertex="1" parent="1">
          <mxGeometry x="-942" y="-151" width="60" height="30" as="geometry" />
        </mxCell>
      </root>
    </mxGraphModel>
  </diagram>
</mxfile>
